<svg xmlns="http://www.w3.org/2000/svg" xmlns:xlink="http://www.w3.org/1999/xlink" viewBox="0 0 58.5555 37.4928"><defs><linearGradient id="a" x1="2011.3221" y1="-1779.1617" x2="1961.1331" y2="-1777.2313" gradientTransform="translate(-1942.4238 1817.5831)" gradientUnits="userSpaceOnUse"><stop offset="0" stop-color="#a6c819"/><stop offset="1" stop-color="#e40b14"/></linearGradient></defs><title>logo</title><path d="M47.2676,26.8877a34.6034,34.6034,0,0,0-25.74,9.51,2.6342,2.6342,0,0,0-.1562,3.5215A34.616,34.616,0,0,0,46.1738,51.6612,34.37,34.37,0,0,0,73.5391,40.458,34.3766,34.3766,0,0,0,47.2676,26.8877Z" transform="translate(-16.5519 -14.2048)" fill="url(#a)"/><path d="M39.7539,16.7862A39.2416,39.2416,0,0,0,16.7266,40.292,3.6452,3.6452,0,0,0,18.3477,44.56a39.3235,39.3235,0,0,0,56.76-24.043A39.2972,39.2972,0,0,0,39.7539,16.7862Z" transform="translate(-16.5519 -14.2048)" fill="#e60012"/><path d="M39.5762,34.9854l-.0684-.0527a5.7176,5.7176,0,0,0-1.1152-.5372,6.1039,6.1039,0,0,0-2.0645-.3457,5.7612,5.7612,0,0,0-3.1386.8653l-.0918.06A4.4928,4.4928,0,0,0,31.74,36.3135a3.26,3.26,0,0,0-.5293,1.7656,3.5969,3.5969,0,0,0,1.5411,2.9,5.7131,5.7131,0,0,0,3.5761,1.1719,6.15,6.15,0,0,0,2.0645-.3477,5.249,5.249,0,0,0,1.66-.9433l.0782-.0684a3.5076,3.5076,0,0,0,1.3144-2.7129,3.2429,3.2429,0,0,0-.5293-1.7636A4.4621,4.4621,0,0,0,39.5762,34.9854Zm-1.625,4.7754a2.2077,2.2077,0,0,1-1.6114.6855,2.2446,2.2446,0,0,1-1.6015-.6875,2.2012,2.2012,0,0,1-.7227-1.65,2.2755,2.2755,0,0,1,.7266-1.67,2.24,2.24,0,0,1,1.5976-.6973,2.2146,2.2146,0,0,1,1.6114.6934,2.2714,2.2714,0,0,1,.7129,1.6738A2.1918,2.1918,0,0,1,37.9512,39.7608Zm6.0879-7.7617H37.7734V30.5655h4.5391a.88.88,0,1,0,0-1.7539l-9.7148.0009v-2.77h9.5117a.8877.8877,0,1,0,0-1.77l-12.3965.01a.5555.5555,0,0,0-.58.4179.5858.5858,0,0,0-.0078.08.71.71,0,0,0,.2637.4863l.0136.0137.0625.0332.0118.0068s0-.0029.0078.003c.07.0342.32.207.3086.3838l-.0078,3.2275a1.71,1.71,0,0,0,1.7675,1.6309h3.4239v1.4336H28.6348a.8837.8837,0,1,0,0,1.7617H44.0391a.8834.8834,0,1,0,0-1.7617Z" transform="translate(-16.5519 -14.2048)" fill="#fff"/><path d="M59.7832,23.8057H57.957a.56.56,0,0,0-.5781.4141.576.576,0,0,0-.0117.1113.5694.5694,0,0,0,.3242.4961l.0078.0049.0039.0009.002.002c.041.0166.3418.2.33.3945v3.543h-2.93a.8835.8835,0,1,0,0,1.7617h2.93v9.12a1.4049,1.4049,0,0,0,2.8007,0l.0039-14.872A1.0218,1.0218,0,0,0,59.7832,23.8057Zm-4.56,11.2-.0508-.0225a4.4984,4.4984,0,0,1-1.92-1.8164,11.01,11.01,0,0,1-1.3692-5.34v-.0029h.002V25.3077a1.026,1.026,0,0,0-1.0586-.98l-1.8848.0009a.5628.5628,0,0,0-.582.4239.7039.7039,0,0,0-.01.1084.5869.5869,0,0,0,.3359.5009c.0235.003.3458.1914.334.3946l-.0078,1.915c.002.0518.002.1016.002.1524a10.9873,10.9873,0,0,1-1.3731,5.3418,4.5128,4.5128,0,0,1-1.93,1.8232l-.0468.0185a.9378.9378,0,0,0-.6153.8614.9812.9812,0,0,0,1.0117.9365c.0684-.002.127-.0078.1719-.0127l.1836-.0312a4.8181,4.8181,0,0,0,2.4121-1.5538,10.53,10.53,0,0,0,1.6192-2.5664,10.3943,10.3943,0,0,0,1.6172,2.5664,4.8281,4.8281,0,0,0,2.416,1.5538l.166.0283a1.3571,1.3571,0,0,0,.1855.0136.9734.9734,0,0,0,1.0078-.9345A.9355.9355,0,0,0,55.2227,35.0059Z" transform="translate(-16.5519 -14.2048)" fill="#fff"/></svg>