<svg xmlns="http://www.w3.org/2000/svg" viewBox="0 0 202.2736 141.5544"><title>video_play</title><path d="M101.0742,0S37.8554,0,21.9883,4.123A26.14,26.14,0,0,0,4.1232,22.113C0,37.98,0,70.84,0,70.84s0,32.9842,4.1231,48.6016a25.7414,25.7414,0,0,0,17.8651,17.8652c15.992,4.2479,79.0859,4.2481,79.0859,4.2481s63.3442,0,79.211-4.1231a25.1377,25.1377,0,0,0,17.74-17.8652c4.2479-15.7423,4.2481-48.6016,4.2481-48.6016s.1248-32.9844-4.2481-48.8515a24.9729,24.9729,0,0,0-17.74-17.74C164.4184,0,101.0742,0,101.0742,0ZM80.959,40.4805l52.6,30.3593-52.6,30.2344V40.48Z" transform="translate(-0.0001)" fill="#ffd641"/><polygon points="80.959 40.48 80.959 101.074 133.559 70.84 80.959 40.48" fill="#fff"/></svg>